<mxfile host="Electron" modified="2021-12-18T02:10:13.318Z" agent="5.0 (X11; Linux x86_64) AppleWebKit/537.36 (KHTML, like Gecko) draw.io/15.8.7 Chrome/91.0.4472.164 Electron/13.6.2 Safari/537.36" etag="FAG00b0yJtACrxJowQ0i" compressed="false" version="15.8.7" type="device">
  <diagram id="BwudaK_U2MyzwN0ZqxtJ" name="Page-1">
    <mxGraphModel dx="471" dy="363" grid="1" gridSize="10" guides="0" tooltips="1" connect="1" arrows="1" fold="1" page="1" pageScale="1" pageWidth="850" pageHeight="1100" math="0" shadow="0">
      <root>
        <mxCell id="0" />
        <mxCell id="1" parent="0" />
        <mxCell id="6GXExk1s070-htVByGJ2-8" value="" style="rounded=0;whiteSpace=wrap;html=1;sketch=1;rotation=-45;fillColor=#dae8fc;strokeColor=#6c8ebf;" vertex="1" parent="1">
          <mxGeometry x="70" y="150" width="100" height="20" as="geometry" />
        </mxCell>
        <mxCell id="6GXExk1s070-htVByGJ2-9" value="" style="rounded=0;whiteSpace=wrap;html=1;sketch=1;rotation=45;fillColor=#dae8fc;strokeColor=#6c8ebf;" vertex="1" parent="1">
          <mxGeometry x="70" y="150" width="100" height="20" as="geometry" />
        </mxCell>
        <mxCell id="6GXExk1s070-htVByGJ2-15" value="" style="rounded=0;whiteSpace=wrap;html=1;fillColor=#fff2cc;strokeColor=#d6b656;sketch=1;" vertex="1" parent="1">
          <mxGeometry x="290" y="80" width="20" height="110" as="geometry" />
        </mxCell>
        <mxCell id="6GXExk1s070-htVByGJ2-18" value="" style="rounded=0;whiteSpace=wrap;html=1;sketch=1;rotation=45;fillColor=#fff2cc;strokeColor=#d6b656;" vertex="1" parent="1">
          <mxGeometry x="310" y="145" width="60" height="20" as="geometry" />
        </mxCell>
        <mxCell id="6GXExk1s070-htVByGJ2-19" value="" style="rounded=0;whiteSpace=wrap;html=1;sketch=1;fillColor=#fff2cc;strokeColor=#d6b656;" vertex="1" parent="1">
          <mxGeometry x="310" y="180" width="50" height="20" as="geometry" />
        </mxCell>
        <mxCell id="6GXExk1s070-htVByGJ2-20" value="" style="rounded=0;whiteSpace=wrap;html=1;sketch=1;fillColor=#d5e8d4;strokeColor=#82b366;" vertex="1" parent="1">
          <mxGeometry x="170" y="120" width="20" height="80" as="geometry" />
        </mxCell>
        <mxCell id="6GXExk1s070-htVByGJ2-21" value="" style="rounded=0;whiteSpace=wrap;html=1;sketch=1;fillColor=#d5e8d4;strokeColor=#82b366;" vertex="1" parent="1">
          <mxGeometry x="170" y="90" width="20" height="20" as="geometry" />
        </mxCell>
        <mxCell id="6GXExk1s070-htVByGJ2-22" value="" style="rounded=0;whiteSpace=wrap;html=1;sketch=1;fillColor=#ffe6cc;strokeColor=#d79b00;" vertex="1" parent="1">
          <mxGeometry x="210" y="120" width="60" height="20" as="geometry" />
        </mxCell>
        <mxCell id="6GXExk1s070-htVByGJ2-23" value="" style="rounded=0;whiteSpace=wrap;html=1;sketch=1;fillColor=#ffe6cc;strokeColor=#d79b00;" vertex="1" parent="1">
          <mxGeometry x="200" y="140" width="20" height="40" as="geometry" />
        </mxCell>
        <mxCell id="6GXExk1s070-htVByGJ2-24" value="" style="rounded=0;whiteSpace=wrap;html=1;sketch=1;fillColor=#ffe6cc;strokeColor=#d79b00;" vertex="1" parent="1">
          <mxGeometry x="210" y="180" width="70" height="20" as="geometry" />
        </mxCell>
        <mxCell id="6GXExk1s070-htVByGJ2-25" value="" style="rounded=0;whiteSpace=wrap;html=1;sketch=1;fillColor=#ffe6cc;strokeColor=#d79b00;" vertex="1" parent="1">
          <mxGeometry x="220" y="150" width="40" height="20" as="geometry" />
        </mxCell>
        <mxCell id="6GXExk1s070-htVByGJ2-26" value="" style="rounded=0;whiteSpace=wrap;html=1;sketch=1;fillColor=#ffe6cc;strokeColor=#d79b00;" vertex="1" parent="1">
          <mxGeometry x="260" y="140" width="20" height="30" as="geometry" />
        </mxCell>
        <mxCell id="6GXExk1s070-htVByGJ2-27" value="" style="rounded=0;whiteSpace=wrap;html=1;sketch=1;fillColor=#f8cecc;strokeColor=#b85450;" vertex="1" parent="1">
          <mxGeometry x="380" y="120" width="20" height="60" as="geometry" />
        </mxCell>
        <mxCell id="6GXExk1s070-htVByGJ2-28" value="" style="rounded=0;whiteSpace=wrap;html=1;sketch=1;fillColor=#f8cecc;strokeColor=#b85450;" vertex="1" parent="1">
          <mxGeometry x="440" y="120" width="20" height="100" as="geometry" />
        </mxCell>
        <mxCell id="6GXExk1s070-htVByGJ2-29" value="" style="rounded=0;whiteSpace=wrap;html=1;sketch=1;fillColor=#f8cecc;strokeColor=#b85450;" vertex="1" parent="1">
          <mxGeometry x="390" y="180" width="50" height="20" as="geometry" />
        </mxCell>
        <mxCell id="6GXExk1s070-htVByGJ2-30" value="" style="rounded=0;whiteSpace=wrap;html=1;sketch=1;fillColor=#f8cecc;strokeColor=#b85450;" vertex="1" parent="1">
          <mxGeometry x="390" y="220" width="60" height="20" as="geometry" />
        </mxCell>
        <mxCell id="6GXExk1s070-htVByGJ2-31" value="" style="rounded=0;whiteSpace=wrap;html=1;sketch=1;fillColor=#e1d5e7;strokeColor=#9673a6;" vertex="1" parent="1">
          <mxGeometry x="490" y="100" width="20" height="80" as="geometry" />
        </mxCell>
        <mxCell id="6GXExk1s070-htVByGJ2-32" value="" style="rounded=0;whiteSpace=wrap;html=1;sketch=1;fillColor=#e1d5e7;strokeColor=#9673a6;" vertex="1" parent="1">
          <mxGeometry x="470" y="180" width="60" height="20" as="geometry" />
        </mxCell>
        <mxCell id="6GXExk1s070-htVByGJ2-33" value="" style="rounded=0;whiteSpace=wrap;html=1;sketch=1;rotation=-35;fillColor=#e1d5e7;strokeColor=#9673a6;" vertex="1" parent="1">
          <mxGeometry x="470" y="90" width="40" height="20" as="geometry" />
        </mxCell>
      </root>
    </mxGraphModel>
  </diagram>
</mxfile>
